<?xml version="1.0" encoding="utf-8"?>
<svg version="1.1" xmlns:xlink="http://www.w3.org/1999/xlink" width="50px" height="48px" xmlns="http://www.w3.org/2000/svg">
  <g transform="matrix(1 0 0 1 -517 -390 )">
    <path d="M 34.1646634615385 29.3988657844991  L 35.6370192307692 27.9773156899811  L 43.359375 20.4158790170132  L 32.6622596153846 18.8431001890359  L 30.6790865384615 18.5406427221172  L 29.7776442307692 16.7258979206049  L 25 6.9867674858223  L 25 36.1134215500945  L 26.7728365384615 37.0510396975425  L 36.328125 42.1323251417769  L 34.5252403846154 31.3950850661626  L 34.1646634615385 29.3988657844991  Z M 49.9399038461538 18.2533081285444  C 50.1201923076923 18.8078134845621  49.8798076923077 19.4076874606175  49.21875 20.0529300567108  L 38.3112980769231 30.7599243856333  L 40.8954326923077 45.882797731569  C 40.9955929487179 46.5482041587902  40.9354967948718 47.067422810334  40.7151442307692 47.4404536862004  C 40.4947916666667 47.8134845620668  40.1542467948718 48  39.6935096153846 48  C 39.3529647435897 48  38.9523237179487 47.8790170132325  38.4915865384615 47.6370510396975  L 25 40.4990548204159  L 11.5084134615385 47.6370510396975  C 11.0476762820513 47.8790170132325  10.6470352564103 48  10.3064903846154 48  C 9.84575320512821 48  9.50520833333333 47.8134845620668  9.28485576923077 47.4404536862004  C 9.06450320512821 47.067422810334  9.00440705128205 46.5482041587902  9.10456730769231 45.882797731569  L 11.6887019230769 30.7599243856333  L 0.751201923076923 20.0529300567108  C 0.110176282051282 19.4076874606175  -0.120192307692308 18.8078134845621  0.0600961538461538 18.2533081285444  C 0.240384615384615 17.6988027725268  0.78125 17.3509766855703  1.68269230769231 17.2098298676749  L 16.7668269230769 15.0018903591682  L 23.5276442307692 1.24007561436673  C 23.9282852564103 0.413358538122241  24.4190705128205 0  25 0  C 25.5608974358974 0  26.0516826923077 0.413358538122241  26.4723557692308 1.24007561436673  L 33.2331730769231 15.0018903591682  L 48.3173076923077 17.2098298676749  C 49.21875 17.3509766855703  49.7596153846154 17.6988027725268  49.9399038461538 18.2533081285444  Z " fill-rule="nonzero" fill="#000000" stroke="none" transform="matrix(1 0 0 1 517 390 )" />
  </g>
</svg>