<?xml version="1.0" encoding="utf-8"?>
<svg version="1.1" xmlns:xlink="http://www.w3.org/1999/xlink" width="50px" height="50px" xmlns="http://www.w3.org/2000/svg">
  <g transform="matrix(1 0 0 1 -560 -536 )">
    <path d="M 35.1236979166667 35.1236979166667  C 35.3190104166667 34.9283854166667  35.4166666666667 34.6788194444444  35 34.375  L 35 15.625  C 35.4166666666667 15.3211805555556  35.3190104166667 15.0716145833333  35.1236979166667 14.8763020833333  C 34.9283854166667 14.6809895833333  34.6788194444444 14.5833333333333  34.375 15  L 15.625 15  C 15.3211805555556 14.5833333333333  15.0716145833333 14.6809895833333  14.8763020833333 14.8763020833333  C 14.6809895833333 15.0716145833333  14.5833333333333 15.3211805555556  15 15.625  L 15 34.375  C 14.5833333333333 34.6788194444444  14.6809895833333 34.9283854166667  14.8763020833333 35.1236979166667  C 15.0716145833333 35.3190104166667  15.3211805555556 35.4166666666667  15.625 35  L 34.375 35  C 34.6788194444444 35.4166666666667  34.9283854166667 35.3190104166667  35.1236979166667 35.1236979166667  Z M 46.6471354166667 12.451171875  C 48.8823784722222 16.2814670138889  50 20.4644097222222  50 25  C 50 29.5355902777778  48.8823784722222 33.7185329861111  46.6471354166667 37.548828125  C 44.4118923611111 41.3791232638889  41.3791232638889 44.4118923611111  37.548828125 46.6471354166667  C 33.7185329861111 48.8823784722222  29.5355902777778 50  25 50  C 20.4644097222222 50  16.2814670138889 48.8823784722222  12.451171875 46.6471354166667  C 8.62087673611111 44.4118923611111  5.58810763888889 41.3791232638889  3.35286458333333 37.548828125  C 1.11762152777778 33.7185329861111  0 29.5355902777778  0 25  C 0 20.4644097222222  1.11762152777778 16.2814670138889  3.35286458333333 12.451171875  C 5.58810763888889 8.62087673611111  8.62087673611111 5.58810763888888  12.451171875 3.35286458333333  C 16.2814670138889 1.11762152777777  20.4644097222222 0  25 0  C 29.5355902777778 0  33.7185329861111 1.11762152777777  37.548828125 3.35286458333333  C 41.3791232638889 5.58810763888888  44.4118923611111 8.62087673611111  46.6471354166667 12.451171875  Z " fill-rule="nonzero" fill="#000000" stroke="none" transform="matrix(1 0 0 1 560 536 )" />
  </g>
</svg>